<svg xmlns="http://www.w3.org/2000/svg" width="255" height="9"><style>
        .level0 { fill: #ebedf0; }
        .level1 { fill: #bce4fa; }
        .level2 { fill: #75c7f7; }
        .level3 { fill: #30a9f2; }
        .level4 { fill: #008ee6; }
        @media (prefers-color-scheme: dark) {
          .level0 { fill: #161b22; }
          .level1 { fill: #0b3b5c; }
          .level2 { fill: #0a6299; }
          .level3 { fill: #008ee6; }
          .level4 { fill: #5bc4ff; }
        }
      </style><rect x="0.0" y="1" width="7" height="7" rx="1.5" ry="1.5" class="level0"><title>May 1, 2026: 0 blog posts</title></rect><rect x="8.5" y="1" width="7" height="7" rx="1.5" ry="1.5" class="level0"><title>May 2, 2026: 0 blog posts</title></rect><rect x="17.0" y="1" width="7" height="7" rx="1.5" ry="1.5" class="level0"><title>May 3, 2026: 0 blog posts</title></rect><rect x="25.5" y="1" width="7" height="7" rx="1.5" ry="1.5" class="level0"><title>May 4, 2026: 0 blog posts</title></rect><rect x="34.0" y="1" width="7" height="7" rx="1.5" ry="1.5" class="level0"><title>May 5, 2026: 0 blog posts</title></rect><rect x="42.5" y="1" width="7" height="7" rx="1.5" ry="1.5" class="level0"><title>May 6, 2026: 0 blog posts</title></rect><rect x="51.0" y="1" width="7" height="7" rx="1.5" ry="1.5" class="level0"><title>May 7, 2026: 0 blog posts</title></rect><rect x="59.5" y="1" width="7" height="7" rx="1.5" ry="1.5" class="level0"><title>May 8, 2026: 0 blog posts</title></rect><rect x="68.0" y="1" width="7" height="7" rx="1.5" ry="1.5" class="level0"><title>May 9, 2026: 0 blog posts</title></rect><rect x="76.5" y="1" width="7" height="7" rx="1.5" ry="1.5" class="level0"><title>May 10, 2026: 0 blog posts</title></rect><rect x="85.0" y="1" width="7" height="7" rx="1.5" ry="1.5" class="level0"><title>May 11, 2026: 0 blog posts</title></rect><rect x="93.5" y="1" width="7" height="7" rx="1.5" ry="1.5" class="level0"><title>May 12, 2026: 0 blog posts</title></rect><rect x="102.0" y="1" width="7" height="7" rx="1.5" ry="1.5" class="level0"><title>May 13, 2026: 0 blog posts</title></rect><rect x="110.5" y="1" width="7" height="7" rx="1.5" ry="1.5" class="level0"><title>May 14, 2026: 0 blog posts</title></rect><rect x="119.0" y="1" width="7" height="7" rx="1.5" ry="1.5" class="level0"><title>May 15, 2026: 0 blog posts</title></rect><rect x="127.5" y="1" width="7" height="7" rx="1.5" ry="1.5" class="level0"><title>May 16, 2026: 0 blog posts</title></rect><rect x="136.0" y="1" width="7" height="7" rx="1.5" ry="1.5" class="level0"><title>May 17, 2026: 0 blog posts</title></rect><rect x="144.5" y="1" width="7" height="7" rx="1.5" ry="1.5" class="level0"><title>May 18, 2026: 0 blog posts</title></rect><rect x="153.0" y="1" width="7" height="7" rx="1.5" ry="1.5" class="level0"><title>May 19, 2026: 0 blog posts</title></rect><rect x="161.5" y="1" width="7" height="7" rx="1.5" ry="1.5" class="level0"><title>May 20, 2026: 0 blog posts</title></rect><rect x="170.0" y="1" width="7" height="7" rx="1.5" ry="1.5" class="level0"><title>May 21, 2026: 0 blog posts</title></rect><rect x="178.5" y="1" width="7" height="7" rx="1.5" ry="1.5" class="level0"><title>May 22, 2026: 0 blog posts</title></rect><rect x="187.0" y="1" width="7" height="7" rx="1.5" ry="1.5" class="level0"><title>May 23, 2026: 0 blog posts</title></rect><rect x="195.5" y="1" width="7" height="7" rx="1.5" ry="1.5" class="level0"><title>May 24, 2026: 0 blog posts</title></rect><rect x="204.0" y="1" width="7" height="7" rx="1.5" ry="1.5" class="level0"><title>May 25, 2026: 0 blog posts</title></rect><rect x="212.5" y="1" width="7" height="7" rx="1.5" ry="1.5" class="level1"><title>May 26, 2026: 1 blog post</title></rect><rect x="221.0" y="1" width="7" height="7" rx="1.5" ry="1.5" class="level0"><title>May 27, 2026: 0 blog posts</title></rect><rect x="229.5" y="1" width="7" height="7" rx="1.5" ry="1.5" class="level0"><title>May 28, 2026: 0 blog posts</title></rect><rect x="238.0" y="1" width="7" height="7" rx="1.5" ry="1.5" class="level0"><title>May 29, 2026: 0 blog posts</title></rect><rect x="246.5" y="1" width="7" height="7" rx="1.5" ry="1.5" class="level0"><title>May 30, 2026: 0 blog posts</title></rect></svg>